<svg xmlns="http://www.w3.org/2000/svg" viewBox="0 0 512 512" role="img" aria-label="T-ROOM おみくじ">
  <rect width="512" height="512" rx="112" fill="#fff4d8"/>
  <circle cx="410" cy="118" r="58" fill="#f3a7b6" opacity=".72"/>
  <circle cx="98" cy="396" r="74" fill="#b6d7c0" opacity=".8"/>
  <path fill="#a96535" d="M183 134h146l44 47v183l-44 47H183l-44-47V181l44-47Z"/>
  <path fill="#e7ad43" d="M199 164h114l31 32v152l-31 32H199l-31-32V196l31-32Z"/>
  <path fill="#c98542" d="M168 196h176v152H168z"/>
  <path fill="#f0bb72" d="M203 196h106v152H203z"/>
  <path fill="#7b4727" d="M219 357h74c8 0 14 6 14 14s-6 14-14 14h-74c-8 0-14-6-14-14s6-14 14-14Z"/>
  <rect x="222" y="249" width="68" height="178" rx="16" fill="#f4ce91" transform="rotate(6 256 338)"/>
  <path fill="#d9a15d" d="M234 263c18 6 35 6 52 0l18 151c-24 12-49 9-76-2l6-149Z" opacity=".36"/>
  <text x="256" y="344" text-anchor="middle" font-family="serif" font-size="92" font-weight="800" fill="#302d29">吉</text>
</svg>
